# xmcd
# 
# Track frame offsets:
#     150
#     15767
#     31667
#     45025
#     59597
#     78272
#     92855
#     106327
#     118550
#     130580
#     149405
# 
# Disc length: 2159
# 
# Revision: 6
# Processed by: cddbd v1.5.2PL0 Copyright (c) Steve Scherf et al.
# Submitted via: fre:ac v1.0.27
# 
DISCID=7a086d0b
DTITLE=Holly Dunn - Milestones - Greatest Hits
DYEAR=1991
DGENRE=Country
TTITLE0=Daddy's Hands
TTITLE1=Only When I Love
TTITLE2=(It's Always Gonna Be) Someday
TTITLE3=Love Someone Like Me
TTITLE4=A Face In The Crowd
TTITLE5=Strangers Again
TTITLE6=Maybe I Mean Yes
TTITLE7=There Goes My Heart Again
TTITLE8=Are You Ever Gonna Love Me
TTITLE9=No One Takes The Train Anymore
TTITLE10=You Really Had Me Going
EXTD=YEAR: 1991
EXTT0=
EXTT1=
EXTT2=
EXTT3=
EXTT4=
EXTT5=
EXTT6=
EXTT7=
EXTT8=
EXTT9=
EXTT10=
PLAYORDER=
